# xmcd CD database file
#
# Track frame offsets:
#	150
#	19922
#	40935
#	60335
#	79742
#	100940
#	121700
#	141650
#	157422
#	176752
#	196300
#
# Disc length: 2884 seconds
#
# Revision: 2
# Processed by: cddbd v1.5.2PL0 Copyright (c) Steve Scherf et al.
# Submitted via: CDex 1.51
#
DISCID=970b420b
DTITLE=Merengue - Carnaval Internacionl III
DYEAR=1997
DGENRE=Merengue
TTITLE0=Grupo Mania - 1. Como Baila
TTITLE1=Kinito Mendez - 2. A Caballo
TTITLE2=Bonny Cepeda - 3. No Vuelvo mas Contigo
TTITLE3=Melina Leon - 4. Mujeres Liberadas
TTITLE4=Giselle y Sergio Vargas - 5. Perdoname, Olvidalo
TTITLE5=los Illegales - 6. Dame de eso
TTITLE6=Elvis Crespo - 7. Luna LLena
TTITLE7=Luis Vargas - 8. Volvio el Dolor
TTITLE8=La Makina - 9. Nadie se Muere
TTITLE9=Ashley - 10. El Nene Sexy
TTITLE10=La Bandan Gorda - 11. Rumba y Gozadera
EXTD=YEAR: 1997
EXTT0=
EXTT1=
EXTT2=
EXTT3=
EXTT4=
EXTT5=
EXTT6=
EXTT7=
EXTT8=
EXTT9=
EXTT10=
PLAYORDER=
